<?xml version="1.0" encoding="UTF-8"?>
<svg width="458px" height="447px" viewBox="0 0 458 447" version="1.1" xmlns="http://www.w3.org/2000/svg" xmlns:xlink="http://www.w3.org/1999/xlink">
    <!-- Generator: Sketch 64 (93537) - https://sketch.com -->
    <title>a4</title>
    <desc>Created with Sketch.</desc>
    <g id="Page-1" stroke="none" stroke-width="1" fill="none" fill-rule="evenodd">
        <g id="a4" fill="#1A2F33" fill-rule="nonzero">
            <path d="M16.656258,219.337018 C16.513258,219.337018 16.361258,219.362018 16.193258,219.411018 C13.765258,220.109018 10.396258,225.009018 9.341258,228.532018 C5.043258,242.579018 4.402258,253.334018 7.053258,266.895018 L7.879258,270.850018 C9.904258,280.532018 11.418258,287.781018 12.668258,297.063018 C13.005258,296.416018 13.295258,295.823018 13.400258,295.572018 C14.157258,293.220018 14.712258,290.930018 15.095258,288.573018 C15.863258,283.837018 16.219258,278.131018 16.213258,270.616018 C16.210258,268.280018 16.173258,265.808018 16.099258,263.267018 C16.083258,262.684018 16.484258,262.174018 17.053258,262.050018 C17.633258,261.923018 18.199258,262.227018 18.425258,262.763018 C20.879258,268.604018 23.874258,272.572018 27.251258,276.791018 L27.347258,276.930018 C27.929258,277.913018 32.852258,283.733018 36.008258,287.367018 C34.939258,280.595018 33.801258,274.020018 31.762258,266.723018 C30.422258,261.869018 28.822258,257.441018 26.572258,252.363018 C25.782258,250.575018 24.961258,248.806018 24.120258,246.994018 C23.232258,245.082018 22.322258,243.122018 21.403258,241.041018 C20.254258,238.432018 18.957258,235.356018 18.114258,231.838018 C17.196258,228.008018 16.957258,224.043018 17.442258,220.671018 C17.496258,220.301018 17.549258,219.937018 17.507258,219.729018 C17.232258,219.457018 16.965258,219.337018 16.656258,219.337018 Z M11.919258,301.546018 L11.807258,301.539018 C11.335258,301.484018 10.748258,301.130018 10.648258,300.316018 C9.337258,289.652018 7.732258,281.973018 5.510258,271.345018 L4.681258,267.373018 C1.980258,253.553018 2.658258,242.101018 7.025258,227.830018 C8.135258,224.122018 11.803258,218.155018 15.524258,217.086018 C16.847258,216.703018 18.073258,216.963018 19.067258,217.834018 C19.479258,218.184018 19.765258,218.680018 19.879258,219.253018 C20.003258,219.871018 19.914258,220.480018 19.844258,220.971018 C19.395258,224.091018 19.618258,227.734018 20.468258,231.273018 C21.264258,234.597018 22.511258,237.553018 23.616258,240.064018 C24.529258,242.129018 25.433258,244.076018 26.314258,245.974018 C27.162258,247.802018 27.990258,249.584018 28.784258,251.385018 C31.084258,256.574018 32.722258,261.105018 34.094258,266.075018 C36.463258,274.560018 37.628258,282.032018 38.861258,289.943018 L39.028258,291.018018 C39.101258,291.490018 38.891258,291.960018 38.491258,292.220018 C38.216258,292.400018 37.874258,292.460018 37.553258,292.383018 C36.504258,292.137018 26.497258,279.731018 25.367258,278.298018 L25.362258,278.303018 C22.988258,275.338018 20.679258,272.334018 18.623258,268.671018 C18.629258,269.328018 18.631258,269.976018 18.633258,270.614018 C18.639258,278.262018 18.274258,284.092018 17.485258,288.960018 C17.079258,291.453018 16.491258,293.872018 15.690258,296.356018 L15.673258,296.406018 C15.653258,296.458018 13.735258,301.546018 11.919258,301.546018 L11.919258,301.546018 Z" id="Fill-59"></path>
            <path d="M27.065258,287.403018 C26.790258,287.403018 26.408258,287.481018 25.916258,287.816018 C23.671258,289.350018 21.687258,294.487018 21.540258,297.718018 C20.849258,311.013018 22.933258,320.453018 28.970258,331.391018 L30.340258,333.798018 C35.008258,341.991018 38.497258,348.117018 42.282258,356.333018 C42.457258,355.586018 42.601258,354.882018 42.641258,354.592018 C42.765258,352.241018 42.710258,350.016018 42.471258,347.793018 C41.988258,343.318018 40.862258,338.154018 38.926258,331.544018 C38.324258,329.491018 37.655258,327.339018 36.937258,325.150018 C36.758258,324.607018 36.984258,324.014018 37.478258,323.727018 C37.972258,323.440018 38.599258,323.536018 38.983258,323.960018 C42.837258,328.211018 46.781258,330.727018 51.165258,333.347018 L51.306258,333.445018 C52.079258,334.070018 58.589258,337.755018 62.620258,339.976018 C59.742258,334.107018 57.015258,328.801018 53.137258,323.038018 C50.594258,319.233018 47.914258,315.918018 44.446258,312.286018 C43.140258,310.913018 41.802258,309.575018 40.431258,308.202018 C39.167258,306.938018 37.874258,305.644018 36.549258,304.267018 C34.675258,302.315018 32.704258,300.184018 31.001258,297.472018 C29.124258,294.490018 27.889258,291.173018 27.524258,288.135018 C27.492258,287.875018 27.450258,287.540018 27.393258,287.438018 C27.312258,287.423018 27.201258,287.403018 27.065258,287.403018 Z M42.435258,360.678018 C41.912258,360.678018 41.447258,360.364018 41.211258,359.837018 C37.019258,350.411018 33.336258,343.944018 28.238258,334.996018 L26.859258,332.573018 C20.656258,321.334018 18.416258,311.206018 19.123258,297.601018 C19.278258,294.199018 21.299258,288.040018 24.551258,285.818018 C25.743258,285.002018 27.017258,284.790018 28.232258,285.203018 C28.765258,285.375018 29.205258,285.733018 29.492258,286.234018 C29.794258,286.759018 29.864258,287.326018 29.919258,287.782018 C30.250258,290.536018 31.360258,293.497018 33.050258,296.184018 C34.632258,298.703018 36.508258,300.730018 38.294258,302.591018 C39.607258,303.954018 40.889258,305.238018 42.143258,306.491018 C43.529258,307.878018 44.879258,309.230018 46.198258,310.616018 C49.765258,314.352018 52.527258,317.768018 55.147258,321.690018 C59.709258,328.469018 62.827258,334.872018 66.130258,341.649018 L66.426258,342.256018 C66.672258,342.763018 66.537258,343.373018 66.099258,343.728018 C65.372258,344.316018 65.370258,344.317018 57.794258,340.061018 C55.232258,338.622018 50.866258,336.141018 49.864258,335.388018 C46.633258,333.456018 43.630258,331.571018 40.699258,329.026018 C40.889258,329.646018 41.073258,330.259018 41.249258,330.864018 C43.226258,337.615018 44.378258,342.912018 44.877258,347.535018 C45.131258,349.902018 45.190258,352.268018 45.056258,354.767018 L45.052258,354.824018 C45.046258,354.878018 44.444258,360.372018 42.646258,360.661018 L42.435258,360.678018 L42.435258,360.678018 Z" id="Fill-60"></path>
            <path d="M53.874258,342.541018 C53.315258,342.584018 52.821258,342.897018 52.354258,343.500018 C50.677258,345.658018 50.138258,350.580018 50.794258,353.373018 C53.503258,365.294018 57.899258,373.076018 66.476258,381.139018 L67.208258,381.810018 C74.558258,388.550018 79.627258,393.198018 85.728258,400.075018 C85.701258,399.321018 85.657258,398.611018 85.620258,398.324018 C85.128258,396.120018 84.499258,394.089018 83.696258,392.117018 C82.060258,388.107018 79.647258,383.717018 76.104258,378.302018 C74.989258,376.600018 73.793258,374.849018 72.553258,373.098018 C72.227258,372.636018 72.264258,372.010018 72.642258,371.589018 C73.021258,371.169018 73.640258,371.069018 74.133258,371.344018 C78.879258,374.007018 83.324258,375.136018 88.227258,376.239018 L88.374258,376.283018 C89.287258,376.615018 96.517258,378.106018 100.970258,378.979018 C96.701258,374.413018 92.707258,370.349018 87.553258,366.305018 C84.146258,363.612018 80.735258,361.430018 76.487258,359.226018 C74.763258,358.330018 73.032258,357.492018 71.199258,356.604018 C69.795258,355.926018 68.362258,355.233018 66.885258,354.489018 C64.587258,353.329018 62.148258,352.040018 59.828258,350.175018 C57.254258,348.109018 55.212258,345.551018 54.080258,342.974018 C54.015258,342.824018 53.936258,342.644018 53.874258,342.541018 Z M86.678258,404.147018 C86.295258,404.147018 85.919258,403.973018 85.637258,403.646018 C78.816258,395.736018 73.548258,390.906018 65.574258,383.594018 L64.830258,382.912018 C55.971258,374.585018 51.224258,366.187018 48.436258,353.918018 C47.626258,350.466018 48.238258,344.854018 50.442258,342.015018 C51.385258,340.800018 52.583258,340.144018 53.906258,340.116927 C54.446258,340.106018 54.993258,340.283018 55.416258,340.650018 C55.873258,341.044018 56.106258,341.568018 56.275258,341.949018 C57.274258,344.229018 59.067258,346.462018 61.345258,348.288018 C63.481258,350.008018 65.792258,351.226018 67.974258,352.328018 C69.439258,353.066018 70.861258,353.753018 72.253258,354.427018 C74.102258,355.321018 75.849258,356.166018 77.603258,357.079018 C81.990258,359.356018 85.521258,361.616018 89.050258,364.404018 C95.332258,369.334018 99.883258,374.241018 105.153258,379.923018 C105.592258,380.398018 105.652258,381.210018 105.197258,381.671018 C104.663258,382.212018 104.661258,382.213018 96.440258,380.540018 C93.606258,379.964018 88.767258,378.958018 87.631258,378.586018 C84.006258,377.769018 80.616258,376.932018 77.145258,375.492018 C77.478258,375.990018 77.806258,376.485018 78.128258,376.975018 C81.760258,382.525018 84.240258,387.046018 85.936258,391.202018 C86.798258,393.316018 87.470258,395.490018 87.994258,397.846018 L88.004258,397.905018 C88.014258,397.959018 88.865258,403.250018 87.231258,404.021018 C87.051258,404.106018 86.864258,404.147018 86.678258,404.147018 L86.678258,404.147018 Z" id="Fill-61"></path>
            <path d="M93.316258,383.978018 C92.737258,384.199018 92.318258,384.681018 92.019258,385.453018 C91.037258,387.979018 91.795258,392.503018 93.126258,394.859018 C98.826258,405.117018 105.083258,411.148018 115.446258,416.377018 C124.282258,420.714018 130.873258,423.949018 138.987258,429.150018 C138.763258,428.446018 138.534258,427.789018 138.426258,427.528018 C137.372258,425.562018 136.230258,423.795018 134.935258,422.132018 C132.311258,418.766018 128.732258,415.153018 123.993258,411.086018 C122.471258,409.782018 120.864258,408.458018 119.214258,407.153018 C118.770258,406.802018 118.629258,406.191018 118.872258,405.681018 C119.115258,405.172018 119.676258,404.891018 120.233258,405.025018 C125.473258,406.217018 130.064258,406.083018 135.094258,405.804018 L135.234258,405.804018 C136.218258,405.849018 143.540258,405.358018 148.072258,405.006018 C143.007258,401.936018 137.959258,399.059018 131.859258,396.612018 C127.862258,394.998018 124.011258,393.888018 119.368258,393.013018 C117.352258,392.630018 115.340258,392.317018 113.210258,391.985018 C111.812258,391.767018 110.385258,391.545018 108.912258,391.296018 C106.392258,390.867018 103.706258,390.361018 101.013258,389.305018 C97.990258,388.123018 95.357258,386.343018 93.598258,384.290018 C93.508258,384.186018 93.396258,384.054018 93.316258,383.978018 Z M140.645258,432.852018 C140.376258,432.852018 140.102258,432.769018 139.850258,432.603018 C130.822258,426.619018 124.276258,423.406018 114.368258,418.543018 C103.656258,413.138018 96.894258,406.621018 91.017258,396.042018 C89.386258,393.158018 88.489258,387.857018 89.762258,384.577018 C90.339258,383.090018 91.332258,382.079018 92.632258,381.654018 C93.152258,381.473018 93.704258,381.487018 94.210258,381.704018 C94.775258,381.944018 95.144258,382.375018 95.413258,382.690018 C96.940258,384.472018 99.235258,386.012018 101.894258,387.051018 C104.375258,388.024018 106.922258,388.502018 109.318258,388.909018 C110.779258,389.157018 112.195258,389.378018 113.582258,389.594018 C115.733258,389.929018 117.764258,390.245018 119.819258,390.635018 C124.621258,391.540018 128.615258,392.691018 132.763258,394.368018 C140.301258,397.392018 146.209258,401.015018 152.463258,404.853018 C152.743258,405.026018 152.942258,405.306018 153.013258,405.627018 C153.082258,405.949018 153.019258,406.285018 152.834258,406.559018 C152.452258,407.129018 152.452258,407.129018 144.156258,407.722018 C141.270258,407.929018 136.354258,408.263018 135.168258,408.223018 C131.457258,408.430018 127.972258,408.554018 124.272258,408.150018 C124.710258,408.517018 125.143258,408.884018 125.569258,409.250018 C130.431258,413.423018 134.119258,417.150018 136.844258,420.644018 C138.235258,422.432018 139.457258,424.323018 140.582258,426.429018 L140.609258,426.481018 C140.631258,426.528018 142.842258,431.362018 141.488258,432.535018 C141.244258,432.746018 140.949258,432.852018 140.645258,432.852018 L140.645258,432.852018 Z" id="Fill-62"></path>
            <path d="M142.052258,411.822018 C141.548258,412.187018 141.270258,412.760018 141.188258,413.582018 C140.919258,416.235018 142.842258,420.332018 144.740258,422.222018 C152.948258,430.518018 160.585258,434.688018 171.985258,437.103018 C182.144258,439.149018 189.143258,440.620018 198.083258,443.563018 C197.689258,442.950018 197.304258,442.390018 197.133258,442.170018 C195.586258,440.524018 194.011258,439.099018 192.319258,437.812018 C188.868258,435.196018 184.450258,432.601018 178.812258,429.880018 C176.991258,429.004018 175.087258,428.134018 173.152258,427.297018 C172.632258,427.072018 172.337258,426.516018 172.444258,425.961018 C172.550258,425.404018 173.028258,424.996018 173.594258,424.978018 C178.963258,424.803018 183.190258,423.585018 188.157258,422.010018 L188.286258,421.977018 C189.226258,421.790018 196.154258,419.508018 200.451258,418.054018 C194.911258,416.382018 189.113258,414.803018 182.554258,413.974018 C178.258258,413.417018 174.248258,413.325018 169.548258,413.671018 C167.423258,413.825018 165.322258,414.051018 163.097258,414.289018 C161.767258,414.432018 160.410258,414.579018 159.011258,414.712018 C156.462258,414.958018 153.736258,415.171018 150.873258,414.869018 C147.654258,414.536018 144.648258,413.533018 142.409258,412.047018 C142.287258,411.966018 142.147258,411.872018 142.052258,411.822018 Z M200.340258,446.797018 C200.178258,446.797018 200.011258,446.769018 199.845258,446.712018 C189.756258,443.220018 182.844258,441.758018 171.495258,439.474018 C159.729258,436.980018 151.484258,432.479018 143.025258,423.930018 C140.698258,421.610018 138.431258,416.798018 138.780258,413.339018 C138.939258,411.756018 139.629258,410.519018 140.774258,409.764018 C141.239258,409.453018 141.770258,409.323018 142.308258,409.394018 C142.907258,409.472018 143.376258,409.783018 143.717258,410.011018 C145.667258,411.305018 148.285258,412.168018 151.124258,412.463018 C153.766258,412.740018 156.355258,412.537018 158.779258,412.304018 C160.171258,412.171018 161.518258,412.025018 162.838258,411.884018 C165.085258,411.643018 167.207258,411.414018 169.371258,411.259018 C174.240258,410.903018 178.399258,410.999018 182.861258,411.573018 C191.028258,412.607018 197.972258,414.749018 204.688258,416.821018 C205.012258,416.921018 205.278258,417.151018 205.424258,417.457018 C205.570258,417.762018 205.580258,418.115018 205.453258,418.430018 C205.210258,419.032018 205.210258,419.032018 197.379258,421.634018 C194.641258,422.544018 189.953258,424.082018 188.833258,424.334018 C185.315258,425.449018 181.991258,426.434018 178.334258,426.976018 C178.849258,427.216018 179.359258,427.458018 179.862258,427.700018 C185.648258,430.492018 190.200258,433.170018 193.781258,435.885018 C195.596258,437.264018 197.280258,438.788018 198.930258,440.548018 L198.968258,440.590018 C199.002258,440.632018 202.407258,444.781018 201.416258,446.232018 C201.167258,446.597018 200.773258,446.797018 200.340258,446.797018 L200.340258,446.797018 Z" id="Fill-63"></path>
            <path d="M196.442258,426.109018 C196.074258,426.565018 195.960258,427.159018 196.081258,427.934018 C196.496258,430.573018 199.462258,434.093018 201.837258,435.476018 C211.996258,441.499018 220.493258,443.698018 232.169258,443.302018 C242.469258,442.856018 249.597258,442.608018 259.077258,443.335018 C258.541258,442.845018 258.032258,442.404018 257.810258,442.234018 C255.876258,441.010018 253.970258,440.003018 251.980258,439.157018 C247.932258,437.438018 242.963258,435.977018 236.789258,434.690018 C234.807258,434.279018 232.733258,433.893018 230.625258,433.542018 C230.066258,433.450018 229.647258,432.981018 229.616258,432.415018 C229.584258,431.850018 229.950258,431.338018 230.495258,431.184018 C235.641258,429.733018 239.405258,427.549018 243.789258,424.843018 L243.908258,424.779018 C244.766258,424.374018 250.850258,420.529018 254.621258,418.101018 C248.789258,417.797018 242.735258,417.645018 236.168258,418.406018 C231.868258,418.893018 227.965258,419.761018 223.507258,421.223018 C221.462258,421.892018 219.458258,422.629018 217.336258,423.410018 C216.120258,423.857018 214.879258,424.313018 213.596258,424.769018 C211.188258,425.623018 208.601258,426.490018 205.772258,426.894018 C202.570258,427.358018 199.401258,427.124018 196.850258,426.239018 C196.714258,426.191018 196.549258,426.135018 196.442258,426.109018 Z M261.775258,445.985018 L261.626258,445.978018 C250.859258,444.990018 243.454258,445.235018 232.262258,445.719018 C220.227258,446.112018 211.063258,443.757018 200.611258,437.563018 C197.708258,435.871018 194.231258,431.747018 193.691258,428.310018 C193.449258,426.773018 193.795258,425.433018 194.691258,424.433018 C195.054258,424.018018 195.536258,423.757018 196.078258,423.692018 C196.673258,423.610018 197.210258,423.802018 197.598258,423.937018 C199.835258,424.711018 202.599258,424.909018 205.428258,424.498018 C208.039258,424.126018 210.399258,423.336018 212.786258,422.488018 C214.061258,422.036018 215.293258,421.582018 216.500258,421.138018 C218.644258,420.350018 220.668258,419.605018 222.754258,418.924018 C227.373258,417.409018 231.426258,416.507018 235.893258,416.001018 C244.043258,415.059018 251.347258,415.479018 258.412258,415.890018 C258.745258,415.909018 259.055258,416.065018 259.269258,416.320018 C259.484258,416.576018 259.583258,416.908018 259.544258,417.239018 C259.467258,417.898018 259.467258,417.898018 252.563258,422.289018 C250.156258,423.819018 246.032258,426.421018 245.010258,426.935018 C241.911258,428.845018 238.966258,430.585018 235.584258,431.980018 C236.157258,432.091018 236.723258,432.206018 237.282258,432.321018 C243.615258,433.641018 248.731258,435.148018 252.926258,436.930018 C255.052258,437.835018 257.086258,438.909018 259.145258,440.214018 L259.195258,440.247018 C259.240258,440.279018 263.668258,443.426018 263.038258,445.133018 C262.843258,445.662018 262.357258,445.985018 261.775258,445.985018 L261.775258,445.985018 Z" id="Fill-64"></path>
            <path d="M252.856258,426.846018 C252.642258,427.345018 252.685258,427.919018 252.982258,428.606018 C254.039258,431.050018 257.955258,433.848018 260.618258,434.623018 C272.073258,438.038018 280.887258,438.132018 292.065258,434.962018 C301.945258,432.049018 308.797258,430.088018 318.061258,428.477018 C317.406258,428.130018 316.792258,427.827018 316.539258,427.720018 C314.342258,427.008018 312.226258,426.499018 310.073258,426.165018 C305.712258,425.493018 300.511258,425.285018 294.179258,425.525018 C292.113258,425.605018 290.002258,425.731018 287.908258,425.896018 C287.365258,425.939018 286.824258,425.588018 286.657258,425.048018 C286.490258,424.507018 286.719258,423.923018 287.210258,423.640018 C291.795258,421.005018 294.979258,417.854018 298.373258,414.307018 L298.479258,414.210018 C299.201258,413.613018 304.070258,408.394018 307.065258,405.126018 C301.124258,406.307018 295.360258,407.607018 289.240258,409.913018 C285.206258,411.422018 281.661258,413.199018 277.741258,415.675018 C275.949258,416.805018 274.213258,417.990018 272.376258,419.246018 C271.311258,419.974018 270.224258,420.716018 269.094258,421.469018 C266.987258,422.870018 264.711258,424.327018 262.081258,425.389018 C259.105258,426.597018 255.976258,427.122018 253.270258,426.876018 C253.134258,426.862018 252.968258,426.847018 252.856258,426.846018 Z M276.948258,439.661018 C271.489258,439.661018 266.016258,438.757018 259.934258,436.944018 C256.633258,435.983018 252.155258,432.788018 250.762258,429.567018 C250.157258,428.169018 250.150258,426.818018 250.740258,425.656018 C251.066258,425.013018 251.558258,424.718018 251.914258,424.584018 C252.477258,424.372018 253.041258,424.421018 253.453258,424.462018 C255.817258,424.683018 258.544258,424.211018 261.172258,423.146018 C263.596258,422.167018 265.667258,420.841018 267.753258,419.454018 C268.874258,418.707018 269.952258,417.970018 271.010258,417.247018 C272.867258,415.979018 274.621258,414.781018 276.450258,413.629018 C280.514258,411.060018 284.197258,409.216018 288.389258,407.648018 C295.903258,404.817018 302.819258,403.478018 310.140258,402.060018 C310.460258,401.994018 310.796258,402.067018 311.065258,402.257018 C311.334258,402.446018 311.515258,402.736018 311.566258,403.061018 C311.671258,403.734018 311.671258,403.734018 306.151258,409.685018 C304.234258,411.752018 300.944258,415.272018 300.079258,416.024018 C297.591258,418.623018 295.204258,421.020018 292.299258,423.187018 C292.897258,423.157018 293.493258,423.130018 294.085258,423.107018 C300.575258,422.857018 305.925258,423.077018 310.442258,423.774018 C312.740258,424.130018 314.992258,424.672018 317.328258,425.432018 L317.375258,425.448018 C317.428258,425.468018 322.561258,427.430018 322.378258,429.236018 C322.327258,429.735018 321.949258,430.291018 321.218258,430.406018 C310.609258,432.086018 303.821258,434.017018 292.738258,437.286018 C287.162258,438.869018 282.061258,439.661018 276.948258,439.661018 L276.948258,439.661018 Z" id="Fill-65"></path>
            <path d="M307.655258,414.031018 C307.590258,414.556018 307.783258,415.092018 308.240258,415.673018 C309.915258,417.801018 314.467258,419.562018 317.267258,419.656018 C329.286258,420.142018 337.811258,418.020018 347.731258,412.095018 C356.101258,406.968018 362.351258,403.139018 371.121258,398.957018 C370.381258,398.793018 369.691258,398.659018 369.411258,398.620018 C367.101258,398.516018 364.931258,398.585018 362.751258,398.831018 C358.401258,399.330018 353.331258,400.490018 347.241258,402.375018 C345.341258,402.964018 343.331258,403.628018 341.271258,404.350018 C340.741258,404.537018 340.151258,404.330018 339.851258,403.854018 C339.551258,403.375018 339.621258,402.754018 340.021258,402.354018 C343.761258,398.609018 345.981258,394.725018 348.301258,390.400018 L348.381258,390.271018 C348.931258,389.503018 352.241258,383.101018 354.251258,379.125018 C348.641258,381.970018 343.581258,384.677018 338.301258,388.487018 C334.811258,390.996018 331.861258,393.626018 328.735258,397.018018 C327.337258,398.532018 326.008258,400.077018 324.601258,401.715018 C323.733258,402.725018 322.848258,403.756018 321.920258,404.807018 C320.265258,406.685018 318.459258,408.658018 316.180258,410.352018 C313.617258,412.259018 310.727258,413.540018 308.043258,413.961018 C307.917258,413.981018 307.762258,414.005018 307.655258,414.031018 Z M320.363258,422.140018 C319.322258,422.140018 318.263258,422.117018 317.177258,422.074018 C313.717258,421.957018 308.532258,419.959018 306.340258,417.169018 C305.402258,415.975018 305.043258,414.679018 305.303258,413.420018 C305.412258,412.862018 305.713258,412.392018 306.172258,412.073018 C306.659258,411.729018 307.219258,411.641018 307.626258,411.576018 C309.972258,411.209018 312.482258,410.088018 314.736258,408.410018 C316.827258,406.856018 318.534258,404.988018 320.105258,403.207018 C321.026258,402.163018 321.905258,401.141018 322.766258,400.138018 C324.188258,398.483018 325.530258,396.921018 326.956258,395.377018 C330.201258,391.859018 333.261258,389.129018 336.891258,386.523018 C343.201258,381.967018 349.141258,378.982018 356.011258,375.526018 L356.371258,375.346018 C356.681258,375.193018 357.031258,375.174018 357.351258,375.296018 C357.671258,375.418018 357.921258,375.666018 358.041258,375.981018 C358.281258,376.593018 358.281258,376.593018 354.571258,383.821018 C353.271258,386.340018 351.051258,390.634018 350.401258,391.601018 C348.691258,394.785018 347.031258,397.745018 344.781258,400.614018 C345.371258,400.425018 345.951258,400.240018 346.521258,400.064018 C352.751258,398.134018 357.971258,396.944018 362.481258,396.427018 C364.801258,396.164018 367.111258,396.091018 369.561258,396.205018 L369.621258,396.209018 C369.671258,396.215018 375.141258,396.745018 375.451258,398.545018 C375.551258,399.145018 375.231258,399.709018 374.651258,399.979018 C364.631258,404.577018 358.411258,408.391018 348.991258,414.165018 C339.641258,419.745018 331.151258,422.140018 320.363258,422.140018 L320.363258,422.140018 Z" id="Fill-66"></path>
            <path d="M357.181258,387.655018 C357.261258,388.202018 357.601258,388.686018 358.221258,389.142018 C360.421258,390.756018 365.261258,391.246018 367.951258,390.589018 C379.671258,387.814018 387.331258,383.364018 395.261258,374.717018 L395.981258,373.908018 C402.461258,366.659018 407.301258,361.252018 414.281258,354.725018 C413.521258,354.786018 412.801258,354.863018 412.511258,354.911018 C410.261258,355.510018 408.191258,356.235018 406.181258,357.127018 C402.151258,358.920018 397.711258,361.491018 392.211258,365.218018 C390.511258,366.369018 388.761258,367.603018 387.001258,368.883018 C386.551258,369.219018 385.921258,369.191018 385.491258,368.816018 C385.071258,368.443018 384.961258,367.825018 385.231258,367.327018 C387.831258,362.558018 388.921258,358.065018 389.981258,353.106018 L390.021258,352.958018 C390.351258,352.026018 391.801258,344.679018 392.661258,340.124018 C388.031258,344.668018 383.921258,348.827018 379.881258,354.112018 C377.181258,357.609018 375.051258,361.045018 372.951258,365.255018 C372.031258,367.086018 371.191258,368.921018 370.301258,370.865018 C369.711258,372.145018 369.111258,373.448018 368.471258,374.787018 C367.381258,377.078018 366.161258,379.504018 364.421258,381.772018 C362.471258,384.324018 360.021258,386.353018 357.541258,387.482018 C357.431258,387.534018 357.281258,387.600018 357.181258,387.655018 Z M365.161258,393.301018 C362.181258,393.301018 358.831258,392.588018 356.791258,391.092018 C355.541258,390.178018 354.841258,389.005018 354.751258,387.700018 C354.711258,387.135018 354.871258,386.601018 355.221258,386.171018 C355.611258,385.697018 356.141258,385.461018 356.521258,385.289018 C358.671258,384.311018 360.781258,382.544018 362.501258,380.300018 C364.101258,378.216018 365.251258,375.920018 366.291258,373.746018 C366.921258,372.419018 367.511258,371.124018 368.101258,369.854018 C369.001258,367.892018 369.851258,366.038018 370.781258,364.174018 C372.961258,359.819018 375.171258,356.262018 377.961258,352.639018 C382.591258,346.583018 387.261258,342.018018 392.661258,336.733018 L393.651258,335.770018 C393.911258,335.513018 394.281258,335.386018 394.641258,335.433018 C395.001258,335.478018 395.331258,335.685018 395.521258,335.996018 C395.841258,336.511018 395.841258,336.511018 394.241258,344.715018 C393.681258,347.608018 392.691258,352.542018 392.341258,353.678018 C391.551258,357.337018 390.741258,360.758018 389.341258,364.248018 C389.851258,363.897018 390.351258,363.552018 390.851258,363.215018 C396.471258,359.406018 401.031258,356.769018 405.201258,354.915018 C407.341258,353.964018 409.541258,353.193018 411.941258,352.560018 L412.001258,352.546018 C412.051258,352.534018 417.411258,351.440018 418.241258,353.061018 C418.521258,353.603018 418.391258,354.238018 417.901258,354.676018 C409.901258,361.975018 405.081258,367.364018 397.781258,375.520018 L397.051258,376.342018 C388.851258,385.277018 380.591258,390.083018 368.521258,392.942018 C367.541258,393.179018 366.381258,393.301018 365.161258,393.301018 L365.161258,393.301018 Z" id="Fill-67"></path>
            <path d="M397.761258,347.743018 C397.981258,348.302018 398.461258,348.699018 399.211258,348.970018 C401.801258,349.902018 406.451258,348.937018 408.871258,347.451018 C419.391258,341.086018 425.521258,334.182018 430.751258,322.823018 L431.931258,320.180018 C435.921258,311.171018 438.911258,304.455018 443.541258,295.753018 C442.841258,296.074018 442.181258,296.397018 441.921258,296.549018 C439.931258,297.945018 438.151258,299.408018 436.471258,301.019018 C433.161258,304.198018 429.611258,308.333018 425.301258,314.036018 C423.991258,315.772018 422.651258,317.605018 421.321258,319.484018 C420.981258,319.952018 420.371258,320.117018 419.851258,319.890018 C419.321258,319.661018 419.031258,319.096018 419.151258,318.535018 C420.341258,312.802018 420.151258,307.828018 419.811258,302.382018 L419.811258,302.235018 C419.881258,301.152018 419.241258,293.161018 418.801258,288.153018 C415.631258,294.461018 412.871258,300.091018 410.451258,306.807018 C408.831258,311.267018 407.711258,315.461018 406.841258,320.408018 C406.471258,322.497018 406.171258,324.558018 405.851258,326.739018 C405.621258,328.269018 405.401258,329.827018 405.141258,331.432018 C404.721258,334.054018 404.211258,336.848018 403.151258,339.658018 C401.971258,342.799018 400.181258,345.553018 398.101258,347.415018 C397.981258,347.525018 397.841258,347.655018 397.761258,347.743018 Z M401.711258,351.751018 C400.501258,351.751018 399.361258,351.596018 398.391258,351.247018 C396.911258,350.713018 395.891258,349.750018 395.451258,348.464018 C395.261258,347.940018 395.271258,347.385018 395.481258,346.873018 C395.721258,346.312018 396.141258,345.932018 396.441258,345.656018 C398.281258,344.008018 399.841258,341.589018 400.891258,338.805018 C401.871258,336.204018 402.351258,333.547018 402.751258,331.047018 C403.011258,329.454018 403.231258,327.907018 403.461258,326.387018 C403.781258,324.188018 404.081258,322.109018 404.461258,319.987018 C405.361258,314.897018 406.501258,310.577018 408.171258,305.983018 C410.831258,298.623018 414.011258,292.303018 417.371258,285.611018 L418.521258,283.329018 C418.701258,282.962018 419.061258,282.714018 419.471258,282.668018 C419.881258,282.628018 420.281258,282.787018 420.541258,283.105018 C421.161258,283.863018 422.141258,300.486018 422.221258,302.230018 L422.231258,302.230018 C422.481258,306.251018 422.651258,310.029018 422.271258,314.058018 C422.641258,313.558018 423.011258,313.064018 423.371258,312.578018 C427.761258,306.771018 431.391258,302.543018 434.791258,299.273018 C436.571258,297.563018 438.461258,296.015018 440.571258,294.538018 L440.631258,294.499018 C440.821258,294.380018 445.421258,291.573018 446.751258,292.830018 C447.091258,293.152018 447.351258,293.782018 446.971258,294.493018 C441.611258,304.330018 438.471258,311.390018 434.141258,321.162018 L432.961258,323.820018 C427.491258,335.679018 421.101258,342.879018 410.131258,349.517018 C408.031258,350.806018 404.681258,351.751018 401.711258,351.751018 L401.711258,351.751018 Z" id="Fill-68"></path>
            <path d="M429.221258,223.116018 C427.991258,231.288018 426.951258,238.470018 426.531258,246.624018 C426.231258,252.045018 426.341258,256.951018 426.891258,262.534018 C427.121258,264.895018 427.411258,267.189018 427.711258,269.619018 C427.921258,271.306018 428.131258,273.021018 428.331258,274.789018 C428.651258,277.682018 428.941258,280.779018 428.711258,284.057018 C428.451258,287.703018 427.511258,291.150018 426.061258,293.758018 C425.931258,293.985018 425.781258,294.261018 425.771258,294.378018 C425.981258,294.683018 426.381258,295.117018 427.401258,295.165018 L427.591258,295.168018 C430.281258,295.168018 434.411258,292.580018 436.251258,290.266018 C443.191258,281.659018 448.231258,272.602018 450.321258,256.360018 L450.841258,251.804018 C452.031258,241.437018 453.001258,233.067018 454.871258,222.106018 C454.311258,222.719018 453.811258,223.294018 453.631258,223.516018 C452.131258,225.815018 450.841258,228.109018 449.691258,230.525018 C447.441258,235.249018 445.291258,240.904018 442.711258,248.862018 C441.951258,251.223018 441.181258,253.686018 440.441258,256.184018 C440.271258,256.745018 439.721258,257.100018 439.141258,257.040018 C438.561258,256.975018 438.111258,256.506018 438.071258,255.922018 C437.601258,249.340018 436.021258,243.994018 434.161258,238.182018 L434.121258,238.055018 C433.881258,236.842018 431.061258,228.467018 429.221258,223.116018 Z M427.571258,297.588018 C427.481258,297.588018 427.381258,297.586018 427.291258,297.581018 C425.741258,297.509018 424.511258,296.853018 423.751258,295.684018 C423.441258,295.230018 423.301258,294.686018 423.361258,294.128018 C423.421258,293.520018 423.701258,293.025018 423.921258,292.628018 C425.231258,290.275018 426.061258,287.187018 426.301258,283.885018 C426.511258,280.809018 426.231258,277.838018 425.921258,275.058018 C425.731258,273.299018 425.521258,271.594018 425.311258,269.917018 C425.011258,267.471018 424.721258,265.161018 424.481258,262.769018 C423.921258,257.061018 423.811258,252.042018 424.111258,246.495018 C424.551258,237.861018 425.691258,230.350018 427.001258,221.652018 L427.551258,217.959018 C427.621258,217.506018 427.931258,217.131018 428.371258,216.988018 C428.811258,216.847018 429.281258,216.960018 429.611258,217.285018 C430.261258,217.949018 435.941258,235.766018 436.461258,237.443018 L436.461258,237.442018 C437.821258,241.666018 439.031258,245.654018 439.791258,250.055018 C440.001258,249.403018 440.201258,248.757018 440.411258,248.119018 C443.021258,240.054018 445.211258,234.307018 447.501258,229.484018 C448.711258,226.954018 450.061258,224.557018 451.631258,222.153018 L451.671258,222.095018 C452.041258,221.593018 455.341258,217.210018 457.021258,217.930018 C457.471258,218.123018 457.941258,218.647018 457.791258,219.492018 C455.571258,231.922018 454.541258,240.818018 453.251258,252.080018 L452.721258,256.653018 C450.851258,271.239018 446.761258,281.084018 438.141258,291.779018 C435.871258,294.635018 431.141258,297.588018 427.571258,297.588018 L427.571258,297.588018 Z" id="Fill-69"></path>
            <path d="M421.811258,159.431018 C422.881258,166.205018 424.011258,172.780018 426.051258,180.075018 C427.391258,184.930018 428.991258,189.359018 431.241258,194.437018 C432.031258,196.227018 432.861258,198.000018 433.701258,199.816018 C434.591258,201.724018 435.501258,203.682018 436.411258,205.759018 C437.561258,208.368018 438.861258,211.445018 439.701258,214.964018 C440.621258,218.788018 440.861258,222.755018 440.371258,226.128018 C440.321258,226.499018 440.261258,226.863018 440.311258,227.072018 C440.711258,227.469018 441.091258,227.538018 441.621258,227.389018 C444.051258,226.691018 447.421258,221.791018 448.471258,218.268018 C452.771258,204.219018 453.411258,193.466018 450.761258,179.904018 L449.941258,175.955018 C447.911258,166.271018 446.401258,159.020018 445.151258,149.735018 C444.811258,150.383018 444.521258,150.977018 444.421258,151.228018 C443.661258,153.571018 443.101258,155.861018 442.721258,158.227018 C441.951258,162.959018 441.601258,168.666018 441.601258,176.184018 C441.601258,178.532018 441.641258,181.005018 441.721258,183.532018 C441.731258,184.115018 441.331258,184.625018 440.761258,184.749018 C440.191258,184.877018 439.621258,184.571018 439.391258,184.036018 C436.931258,178.193018 433.941258,174.226018 430.561258,170.008018 L430.471258,169.867018 C429.891258,168.888018 424.961258,163.068018 421.811258,159.431018 Z M441.131258,229.885018 C440.251258,229.885018 439.441258,229.575018 438.751258,228.965018 C438.341258,228.614018 438.051258,228.119018 437.931258,227.547018 C437.811258,226.929018 437.901258,226.321018 437.971258,225.832018 C438.421258,222.705018 438.201258,219.064018 437.341258,215.527018 C436.551258,212.203018 435.301258,209.247018 434.201258,206.736018 C433.291258,204.674018 432.381258,202.731018 431.511258,200.835018 C430.651258,199.004018 429.821258,197.219018 429.031258,195.415018 C426.731258,190.226018 425.091258,185.693018 423.721258,180.722018 C421.351258,172.249018 420.191258,164.784018 418.961258,156.880018 L418.791258,155.780018 C418.711258,155.307018 418.931258,154.833018 419.331258,154.575018 C419.601258,154.398018 419.951258,154.335018 420.261258,154.417018 C421.321258,154.667018 431.311258,167.064018 432.441258,168.501018 L432.451258,168.495018 C434.831258,171.460018 437.131258,174.464018 439.191258,178.126018 C439.181258,177.472018 439.181258,176.824018 439.181258,176.188018 C439.181258,168.533018 439.541258,162.703018 440.331258,157.840018 C440.741258,155.337018 441.321258,152.919018 442.131258,150.444018 L442.141258,150.395018 C442.161258,150.342018 444.131258,145.000018 446.011258,145.260018 C446.481258,145.315018 447.071258,145.668018 447.171258,146.481018 C448.481258,157.149018 450.081258,164.829018 452.301258,175.460018 L453.131258,179.426018 C455.841258,193.247018 455.161258,204.699018 450.791258,218.970018 C449.681258,222.679018 446.011258,228.645018 442.291258,229.714018 C441.891258,229.828018 441.511258,229.885018 441.131258,229.885018 L441.131258,229.885018 Z" id="Fill-70"></path>
            <path d="M395.191258,106.823018 C398.071258,112.694018 400.801258,117.999018 404.681258,123.761018 C407.221258,127.563018 409.901258,130.879018 413.371258,134.514018 C414.671258,135.884018 416.011258,137.219018 417.381258,138.588018 C418.641258,139.855018 419.941258,141.152018 421.261258,142.533018 C423.051258,144.395018 425.101258,146.608018 426.811258,149.327018 C428.691258,152.307018 429.921258,155.622018 430.291258,158.662018 C430.321258,158.914018 430.361258,159.257018 430.421258,159.362018 C430.671258,159.408018 431.161258,159.488018 431.901258,158.982018 C434.141258,157.450018 436.131258,152.314018 436.271258,149.081018 C436.971258,135.786018 434.881258,126.347018 428.841258,115.409018 L427.481258,113.014018 C422.811258,104.815018 419.321258,98.685018 415.531258,90.466018 C415.361258,91.214018 415.211258,91.918018 415.171258,92.208018 C415.051258,94.558018 415.101258,96.783018 415.341258,99.007018 C415.831258,103.484018 416.951258,108.647018 418.891258,115.255018 C419.491258,117.294018 420.151258,119.447018 420.881258,121.650018 C421.051258,122.194018 420.831258,122.787018 420.331258,123.073018 C419.841258,123.360018 419.221258,123.262018 418.831258,122.840018 C414.981258,118.590018 411.041258,116.075018 406.651258,113.453018 L406.511258,113.355018 C405.731258,112.726018 399.221258,109.043018 395.191258,106.823018 Z M430.811258,161.801018 C430.401258,161.801018 429.991258,161.732018 429.581258,161.596018 C429.051258,161.424018 428.611258,161.067018 428.321258,160.567018 C428.021258,160.035018 427.951258,159.459018 427.891258,158.997018 C427.561258,156.260018 426.451258,153.299018 424.761258,150.615018 C423.181258,148.090018 421.301258,146.065018 419.521258,144.209018 C418.201258,142.842018 416.921258,141.555018 415.661258,140.299018 C414.281258,138.914018 412.931258,137.566018 411.621258,136.184018 C408.051258,132.444018 405.281258,129.028018 402.671258,125.109018 C398.111258,118.342018 395.001258,111.951018 391.701258,105.184018 L391.391258,104.544018 C391.141258,104.038018 391.281258,103.428018 391.711258,103.074018 C392.441258,102.478018 392.451258,102.484018 400.021258,106.738018 C402.581258,108.177018 406.951258,110.658018 407.951258,111.412018 C411.181258,113.344018 414.181258,115.229018 417.111258,117.775018 C416.931258,117.152018 416.741258,116.539018 416.561258,115.935018 C414.591258,109.186018 413.441258,103.889018 412.941258,99.265018 C412.681258,96.896018 412.621258,94.531018 412.761258,92.033018 L412.761258,91.976018 C412.771258,91.922018 413.371258,86.426018 415.171258,86.138018 C415.781258,86.040018 416.341258,86.364018 416.601258,86.961018 C420.801258,96.393018 424.481258,102.862018 429.581258,111.816018 L430.961258,114.226018 C437.161258,125.465018 439.401258,135.593018 438.691258,149.199018 C438.541258,152.601018 436.511258,158.762018 433.261258,160.981018 C432.471258,161.525018 431.631258,161.801018 430.811258,161.801018 L430.811258,161.801018 Z" id="Fill-71"></path>
            <path d="M356.841258,67.821018 C361.101258,72.378018 365.101258,76.448018 370.261258,80.495018 C373.671258,83.191018 377.091258,85.373018 381.331258,87.572018 C383.061258,88.473018 384.791258,89.312018 386.631258,90.201018 C388.031258,90.878018 389.461258,91.570018 390.931258,92.309018 C393.231258,93.472018 395.671258,94.761018 397.981258,96.623018 C400.561258,98.690018 402.601258,101.248018 403.731258,103.825018 C403.801258,103.968018 403.881258,104.151018 403.941258,104.257018 C404.501258,104.216018 404.991258,103.902018 405.461258,103.299018 C407.141258,101.141018 407.681258,96.219018 407.021258,93.426018 C404.311258,81.505018 399.911258,73.723018 391.341258,65.661018 L390.581258,64.966018 C383.241258,58.235018 378.181258,53.592018 372.091258,46.725018 C372.111258,47.479018 372.161258,48.189018 372.191258,48.475018 C372.681258,50.679018 373.311258,52.709018 374.121258,54.683018 C375.761258,58.699018 378.171258,63.089018 381.711258,68.497018 C382.851258,70.231018 384.041258,71.983018 385.261258,73.702018 C385.591258,74.164018 385.551258,74.790018 385.171258,75.211018 C384.801258,75.631018 384.171258,75.731018 383.681258,75.456018 C378.941258,72.794018 374.491258,71.665018 369.591258,70.561018 L369.441258,70.518018 C368.531258,70.187018 361.301258,68.694018 356.841258,67.821018 Z M403.831258,106.682018 C403.301258,106.682018 402.801258,106.500018 402.401258,106.153018 C401.931258,105.747018 401.701258,105.216018 401.531258,104.827018 C400.541258,102.570018 398.751258,100.337018 396.471258,98.510018 C394.331258,96.795018 392.021258,95.574018 389.841258,94.471018 C388.381258,93.737018 386.961258,93.051018 385.581258,92.380018 C383.721258,91.482018 381.971258,90.635018 380.211258,89.719018 C375.831258,87.448018 372.301258,85.189018 368.761258,82.397018 C362.471258,77.460018 357.921258,72.546018 352.641258,66.856018 C352.211258,66.384018 352.161258,65.597018 352.611258,65.135018 C353.151258,64.586018 353.151258,64.585018 361.371258,66.259018 C364.211258,66.836018 369.051258,67.842018 370.181258,68.215018 C373.811258,69.031018 377.201258,69.868018 380.671258,71.308018 C380.341258,70.813018 380.011258,70.318018 379.691258,69.824018 C376.061258,64.281018 373.581258,59.760018 371.881258,55.596018 C371.021258,53.481018 370.341258,51.309018 369.821258,48.954018 L369.811258,48.898018 C369.801258,48.845018 368.961258,43.545018 370.581258,42.780018 C371.131258,42.518018 371.761258,42.668018 372.181258,43.154018 C378.991258,51.056018 384.251258,55.880018 392.221258,63.182018 L392.981258,63.888018 C401.841258,72.214018 406.591258,80.612018 409.381258,92.881018 C410.191258,96.334018 409.581258,101.945018 407.371258,104.784018 C406.431258,105.999018 405.231258,106.655018 403.911258,106.681018 L403.831258,106.682018 L403.831258,106.682018 Z" id="Fill-72"></path>
            <path d="M309.743258,41.794018 C314.814258,44.867018 319.865258,47.745018 325.955258,50.187018 C329.951258,51.801018 333.801258,52.911018 338.441258,53.786018 C340.461258,54.169018 342.481258,54.483018 344.611258,54.815018 C346.011258,55.034018 347.431258,55.256018 348.901258,55.504018 C351.421258,55.933018 354.111258,56.440018 356.801258,57.494018 C359.821258,58.676018 362.461258,60.456018 364.221258,62.509018 C364.311258,62.622018 364.421258,62.749018 364.501258,62.822018 C365.081258,62.602018 365.501258,62.121018 365.801258,61.347018 C366.781258,58.821018 366.021258,54.297018 364.691258,51.939018 C358.991258,41.681018 352.731258,35.650018 342.371258,30.422018 C333.531258,26.085018 326.943258,22.851018 318.829258,17.649018 C319.051258,18.354018 319.281258,19.010018 319.389258,19.271018 C320.445258,21.241018 321.587258,23.006018 322.880258,24.667018 C325.501258,28.030018 329.080258,31.643018 333.821258,35.713018 C335.341258,37.014018 336.951258,38.337018 338.601258,39.647018 C339.051258,39.998018 339.191258,40.609018 338.941258,41.118018 C338.701258,41.627018 338.131258,41.904018 337.581258,41.775018 C332.341258,40.583018 327.751258,40.716018 322.721258,40.996018 L322.580258,40.996018 C321.621258,40.927018 314.279258,41.442018 309.743258,41.794018 Z M364.451258,65.270018 C364.161258,65.270018 363.881258,65.212018 363.601258,65.096018 C363.041258,64.860018 362.681258,64.434018 362.411258,64.122018 C360.871258,62.327018 358.581258,60.787018 355.921258,59.747018 C353.441258,58.777018 350.891258,58.299018 348.501258,57.891018 C347.041258,57.644018 345.621258,57.423018 344.241258,57.207018 C342.091258,56.871018 340.051258,56.554018 337.991258,56.164018 C333.191258,55.257018 329.195258,54.106018 325.051258,52.431018 C317.527258,49.414018 311.614258,45.787018 305.352258,41.947018 C305.069258,41.773018 304.869258,41.492018 304.800258,41.167018 C304.732258,40.843018 304.799258,40.504018 304.986258,40.231018 C305.370258,39.671018 305.370258,39.671018 313.659258,39.078018 C316.547258,38.871018 321.484258,38.536018 322.647258,38.577018 C326.357258,38.372018 329.841258,38.246018 333.541258,38.649018 C333.101258,38.282018 332.671258,37.914018 332.241258,37.549018 C327.381258,33.373018 323.694258,29.647018 320.971258,26.155018 C319.583258,24.372018 318.360258,22.479018 317.233258,20.370018 L317.206258,20.318018 C317.184258,20.271018 314.974258,15.437018 316.326258,14.265018 C316.787258,13.866018 317.429258,13.842018 317.964258,14.196018 C326.995258,20.182018 333.541258,23.394018 343.451258,28.256018 C354.161258,33.660018 360.921258,40.178018 366.801258,50.757018 C368.431258,53.642018 369.321258,58.943018 368.051258,62.223018 C367.471258,63.710018 366.481258,64.722018 365.181258,65.146018 C364.941258,65.229018 364.691258,65.270018 364.451258,65.270018 L364.451258,65.270018 Z" id="Fill-73"></path>
            <path d="M303.989258,31.782018 C304.954258,31.782018 305.939258,31.824018 306.941258,31.929018 C310.164258,32.265018 313.170258,33.267018 315.405258,34.752018 C315.528258,34.834018 315.668258,34.927018 315.763258,34.977018 C316.267258,34.609018 316.545258,34.037018 316.627258,33.217018 C316.896258,30.563018 314.974258,26.467018 313.075258,24.576018 C304.867258,16.280018 297.230258,12.111018 285.831258,9.695018 C275.673258,7.650018 268.672258,6.178018 259.732258,3.237018 C260.127258,3.849018 260.511258,4.409018 260.682258,4.630018 C262.227258,6.274018 263.803258,7.700018 265.497258,8.985018 C268.944258,11.601018 273.362258,14.196018 279.004258,16.920018 C280.811258,17.789018 282.715258,18.659018 284.663258,19.503018 C285.184258,19.728018 285.478258,20.284018 285.371258,20.840018 C285.265258,21.396018 284.787258,21.804018 284.222258,21.822018 C278.859258,21.996018 274.453258,23.268018 269.658258,24.790018 L269.529258,24.823018 C268.588258,25.011018 261.661258,27.292018 257.365258,28.745018 C262.908258,30.418018 268.711258,31.998018 275.260258,32.826018 C279.558258,33.380018 283.566258,33.475018 288.268258,33.129018 C290.398258,32.975018 292.506258,32.748018 294.738258,32.508018 C296.061258,32.365018 297.410258,32.220018 298.805258,32.086018 C300.460258,31.927018 302.193258,31.782018 303.989258,31.782018 Z M315.796258,37.425018 C315.701258,37.425018 315.607258,37.419018 315.512258,37.406018 C314.908258,37.327018 314.445258,37.018018 314.105258,36.794018 C312.151258,35.495018 309.532258,34.632018 306.690258,34.335018 C304.046258,34.059018 301.461258,34.264018 299.036258,34.495018 C297.652258,34.628018 296.311258,34.772018 294.996258,34.914018 C292.743258,35.156018 290.614258,35.385018 288.444258,35.541018 C283.577258,35.897018 279.417258,35.801018 274.953258,35.227018 C266.799258,34.194018 259.849258,32.052018 253.127258,29.980018 C252.807258,29.880018 252.541258,29.652018 252.395258,29.350018 C252.248258,29.047018 252.235258,28.698018 252.357258,28.385018 C252.594258,27.771018 252.594258,27.771018 260.437258,25.166018 C263.173258,24.256018 267.861258,22.718018 268.982258,22.466018 C272.499258,21.351018 275.822258,20.365018 279.480258,19.824018 C278.963258,19.583018 278.454258,19.341018 277.953258,19.100018 C272.163258,16.305018 267.611258,13.628018 264.034258,10.914018 C262.218258,9.535018 260.533258,8.009018 258.885258,6.250018 L258.847258,6.209018 C258.813258,6.167018 255.392258,2.041018 256.397258,0.568018 C256.741258,0.064018 257.354258,-0.127982 257.968258,0.087018 C268.059258,3.578018 274.971258,5.041018 286.321258,7.325018 C298.086258,9.818018 306.331258,14.320018 314.790258,22.869018 C317.119258,25.188018 319.384258,30.002018 319.035258,33.461018 C318.875258,35.044018 318.185258,36.280018 317.039258,37.035018 C316.665258,37.290018 316.237258,37.425018 315.796258,37.425018 L315.796258,37.425018 Z" id="Fill-74"></path>
            <path d="M203.191258,28.699018 C209.171258,29.011018 215.041258,29.160018 221.648258,28.394018 C225.954258,27.906018 229.859258,27.036018 234.308258,25.576018 C236.365258,24.904018 238.381258,24.163018 240.515258,23.377018 C241.720258,22.934018 242.948258,22.483018 244.219258,22.030018 C246.625258,21.177018 249.209258,20.310018 252.043258,19.904018 C255.244258,19.445018 258.414258,19.679018 260.966258,20.561018 C261.108258,20.611018 261.267258,20.665018 261.373258,20.690018 C261.740258,20.234018 261.856258,19.640018 261.734258,18.865018 C261.321258,16.227018 258.353258,12.707018 255.978258,11.323018 C245.818258,5.302018 237.322258,3.114018 225.645258,3.498018 C215.339258,3.944018 208.211258,4.188018 198.737258,3.464018 C199.274258,3.955018 199.783258,4.395018 200.005258,4.565018 C201.936258,5.789018 203.845258,6.796018 205.835258,7.643018 C209.879258,9.360018 214.849258,10.820018 221.026258,12.108018 C223.022258,12.523018 225.095258,12.909018 227.190258,13.258018 C227.749258,13.350018 228.168258,13.819018 228.199258,14.385018 C228.231258,14.951018 227.865258,15.463018 227.321258,15.616018 C222.176258,17.065018 218.411258,19.251018 214.025258,21.957018 L213.906258,22.021018 C213.044258,22.427018 206.960258,26.272018 203.191258,28.699018 Z M211.480258,31.367018 C207.311258,31.367018 203.321258,31.137018 199.403258,30.910018 C199.074258,30.891018 198.766258,30.738018 198.551258,30.487018 C198.337258,30.235018 198.236258,29.908018 198.269258,29.579018 C198.338258,28.907018 198.338258,28.907018 205.252258,24.510018 C207.657258,22.980018 211.782258,20.379018 212.804258,19.865018 C215.904258,17.955018 218.851258,16.214018 222.231258,14.820018 C221.660258,14.708018 221.093258,14.593018 220.533258,14.477018 C214.198258,13.158018 209.081258,11.650018 204.889258,9.870018 C202.761258,8.964018 200.726258,7.890018 198.669258,6.584018 L198.620258,6.551018 C198.575258,6.519018 194.149258,3.374018 194.777258,1.667018 C194.988258,1.094018 195.551258,0.773018 196.188258,0.821018 C206.950258,1.808018 214.357258,1.563018 225.553258,1.081018 C237.584258,0.675018 246.752258,3.043018 257.204258,9.236018 C260.107258,10.929018 263.585258,15.054018 264.125258,18.490018 C264.366258,20.026018 264.020258,21.366018 263.124258,22.366018 C262.759258,22.783018 262.275258,23.044018 261.733258,23.108018 C261.139258,23.190018 260.606258,22.998018 260.218258,22.863018 C257.980258,22.090018 255.216258,21.893018 252.386258,22.301018 C249.770258,22.674018 247.413258,23.465018 245.029258,24.310018 C243.767258,24.759018 242.547258,25.209018 241.350258,25.648018 C239.195258,26.441018 237.158258,27.190018 235.061258,27.875018 C230.449258,29.389018 226.398258,30.290018 221.923258,30.797018 C218.293258,31.218018 214.828258,31.367018 211.480258,31.367018 L211.480258,31.367018 Z" id="Fill-75"></path>
            <path d="M170.004258,20.900018 C170.530258,20.900018 171.001258,21.243018 171.158258,21.752018 C171.326258,22.293018 171.096258,22.877018 170.606258,23.160018 C166.017258,25.796018 162.835258,28.946018 159.442258,32.493018 L159.336258,32.590018 C158.614258,33.187018 153.745258,38.404018 150.750258,41.673018 C156.695258,40.491018 162.463258,39.190018 168.575258,36.886018 C172.610258,35.377018 176.156258,33.601018 180.074258,31.125018 C181.868258,29.993018 183.608258,28.805018 185.449258,27.548018 C186.511258,26.823018 187.594258,26.082018 188.720258,25.331018 C190.824258,23.931018 193.097258,22.476018 195.733258,21.411018 C198.714258,20.202018 201.843258,19.676018 204.545258,19.924018 C204.690258,19.937018 204.850258,19.953018 204.958258,19.953018 C205.172258,19.451018 205.129258,18.878018 204.832258,18.192018 C203.775258,15.748018 199.859258,12.952018 197.196258,12.177018 C185.742258,8.758018 176.929258,8.665018 165.749258,11.838018 C155.870258,14.752018 149.014258,16.711018 139.753258,18.322018 C140.410258,18.668018 141.024258,18.972018 141.277258,19.078018 C143.480258,19.793018 145.595258,20.303018 147.741258,20.633018 C152.100258,21.306018 157.298258,21.517018 163.636258,21.275018 C165.733258,21.192018 167.843258,21.067018 169.907258,20.904018 L170.004258,20.900018 Z M147.446258,44.761018 C147.199258,44.761018 146.955258,44.686018 146.750258,44.542018 C146.481258,44.352018 146.300258,44.063018 146.249258,43.738018 C146.144258,43.065018 146.144258,43.065018 151.664258,37.114018 C153.581258,35.048018 156.872258,31.529018 157.736258,30.776018 C160.223258,28.177018 162.610258,25.780018 165.516258,23.612018 C164.921258,23.643018 164.325258,23.669018 163.730258,23.693018 C157.236258,23.939018 151.884258,23.720018 147.373258,23.025018 C145.083258,22.672018 142.831258,22.129018 140.487258,21.367018 L140.441258,21.351018 C140.389258,21.332018 135.256258,19.375018 135.437258,17.565018 C135.487258,17.065018 135.865258,16.508018 136.596258,16.394018 C147.204258,14.714018 153.992258,12.782018 165.076258,9.514018 C176.606258,6.244018 186.107258,6.345018 197.880258,9.856018 C201.181258,10.816018 205.659258,14.011018 207.054258,17.232018 C207.657258,18.629018 207.664258,19.981018 207.073258,21.143018 C206.824258,21.646018 206.417258,22.021018 205.900258,22.214018 C205.343258,22.425018 204.782258,22.377018 204.374258,22.340018 C201.996258,22.123018 199.272258,22.588018 196.640258,23.653018 C194.213258,24.634018 192.143258,25.960018 190.062258,27.345018 C188.945258,28.090018 187.868258,28.825018 186.813258,29.546018 C184.953258,30.816018 183.198258,32.017018 181.365258,33.171018 C177.301258,35.740018 173.618258,37.584018 169.426258,39.151018 C161.922258,41.980018 155.001258,43.320018 147.676258,44.739018 L147.446258,44.761018 L147.446258,44.761018 Z" id="Fill-76"></path>
            <path d="M116.939258,42.382018 C117.346258,42.382018 117.737258,42.587018 117.963258,42.946018 C118.264258,43.425018 118.194258,44.046018 117.796258,44.447018 C114.060258,48.188018 111.833258,52.074018 109.513258,56.400018 L109.434258,56.529018 C108.888258,57.297018 105.574258,63.699018 103.565258,67.675018 C109.176258,64.830018 114.236258,62.122018 119.509258,58.313018 C123.005258,55.803018 125.955258,53.173018 129.080258,49.781018 C130.484258,48.261018 131.819258,46.707018 133.232258,45.063018 C134.095258,44.060018 134.974258,43.036018 135.894258,41.992018 C137.554258,40.111018 139.365258,38.135018 141.635258,36.448018 C144.198258,34.542018 147.087258,33.260018 149.771258,32.838018 C149.896258,32.819018 150.052258,32.795018 150.159258,32.769018 C150.224258,32.245018 150.031258,31.710018 149.574258,31.127018 C147.900258,28.999018 143.349258,27.238018 140.548258,27.143018 C128.540258,26.654018 120.003258,28.778018 110.081258,34.704018 C101.716258,39.831018 95.467258,43.660018 86.696258,47.842018 C87.433258,48.006018 88.122258,48.141018 88.409258,48.180018 C90.715258,48.282018 92.890258,48.215018 95.061258,47.968018 C99.463258,47.464018 104.394258,46.338018 110.577258,44.425018 C112.497258,43.829018 114.504258,43.164018 116.538258,42.450018 C116.670258,42.404018 116.806258,42.382018 116.939258,42.382018 Z M100.897258,71.583018 C100.751258,71.583018 100.605258,71.557018 100.465258,71.504018 C100.149258,71.382018 99.897258,71.134018 99.772258,70.819018 C99.530258,70.207018 99.530258,70.207018 103.244258,62.979018 C104.539258,60.460018 106.768258,56.166018 107.410258,55.199018 C109.120258,52.014018 110.787258,49.054018 113.032258,46.185018 C112.447258,46.374018 111.866258,46.559018 111.293258,46.736018 C104.962258,48.695018 99.893258,49.850018 95.335258,50.372018 C93.019258,50.636018 90.699258,50.705018 88.252258,50.595018 L88.193258,50.590018 C88.137258,50.585018 82.667258,50.038018 82.367258,48.253018 C82.266258,47.653018 82.581258,47.089018 83.169258,46.820018 C93.181258,42.222018 99.407258,38.408018 108.828258,32.634018 C119.074258,26.517018 128.290258,24.227018 140.638258,24.725018 C144.098258,24.842018 149.282258,26.843018 151.476258,29.631018 C152.413258,30.825018 152.771258,32.121018 152.511258,33.380018 C152.402258,33.937018 152.102258,34.407018 151.646258,34.725018 C151.152258,35.074018 150.588258,35.161018 150.177258,35.225018 C147.842258,35.591018 145.332258,36.714018 143.079258,38.390018 C140.993258,39.939018 139.349258,41.735018 137.709258,43.593018 C136.795258,44.629018 135.924258,45.644018 135.067258,46.640018 C133.640258,48.301018 132.291258,49.872018 130.859258,51.422018 C127.620258,54.938018 124.556258,57.669018 120.923258,60.277018 C114.615258,64.834018 108.671258,67.820018 101.791258,71.278018 L101.441258,71.454018 C101.270258,71.539018 101.083258,71.583018 100.897258,71.583018 L100.897258,71.583018 Z" id="Fill-77"></path>
            <path d="M71.525258,77.684018 C71.811258,77.684018 72.096258,77.784018 72.323258,77.984018 C72.748258,78.357018 72.858258,78.975018 72.587258,79.473018 C69.986258,84.247018 68.895258,88.739018 67.831258,93.694018 L67.790258,93.842018 C67.461258,94.775018 66.009258,102.122018 65.157258,106.676018 C69.787258,102.132018 73.893258,97.971018 77.938258,92.686018 C80.628258,89.194018 82.764258,85.759018 84.865258,81.545018 C85.781258,79.715018 86.623258,77.880018 87.517258,75.937018 C88.105258,74.658018 88.705258,73.352018 89.342258,72.013018 C90.433258,69.727018 91.643258,67.305018 93.392258,65.027018 C95.347258,62.474018 97.791258,60.446018 100.274258,59.317018 C100.388258,59.266018 100.535258,59.200018 100.634258,59.145018 C100.557258,58.598018 100.216258,58.114018 99.595258,57.658018 C97.394258,56.043018 92.557258,55.553018 89.861258,56.211018 C78.144258,58.984018 70.491258,63.434018 62.556258,72.082018 L61.865258,72.853018 C55.372258,80.117018 50.530258,85.535018 43.530258,92.075018 C44.295258,92.014018 45.014258,91.937018 45.306258,91.889018 C47.551258,91.292018 49.620258,90.567018 51.634258,89.672018 C55.659258,87.882018 60.099258,85.311018 65.606258,81.582018 C67.279258,80.446018 69.031258,79.213018 70.813258,77.915018 C71.026258,77.761018 71.276258,77.684018 71.525258,77.684018 Z M63.322258,111.375018 L63.174258,111.366018 C62.807258,111.321018 62.483258,111.112018 62.289258,110.799018 C61.721258,109.871018 65.079258,94.858018 65.471258,93.187018 L65.466258,93.186018 C66.255258,89.504018 67.062258,86.066018 68.469258,82.552018 C67.961258,82.904018 67.458258,83.249018 66.963258,83.585018 C61.335258,87.396018 56.778258,90.034018 52.617258,91.884018 C50.470258,92.838018 48.267258,93.608018 45.877258,94.240018 L45.815258,94.254018 C45.759258,94.265018 40.401258,95.360018 39.575258,93.739018 C39.297258,93.196018 39.429258,92.562018 39.908258,92.124018 C47.930258,84.812018 52.755258,79.414018 60.062258,71.241018 L60.762258,70.457018 C68.962258,61.521018 77.226258,56.715018 89.296258,53.858018 C92.632258,53.041018 98.145258,53.591018 101.027258,55.707018 C102.272258,56.622018 102.977258,57.794018 103.062258,59.099018 C103.105258,59.663018 102.944258,60.198018 102.591258,60.628018 C102.200258,61.105018 101.674258,61.341018 101.290258,61.514018 C99.148258,62.487018 97.031258,64.256018 95.312258,66.500018 C93.704258,68.591018 92.561258,70.885018 91.527258,73.054018 C90.895258,74.382018 90.299258,75.677018 89.715258,76.949018 C88.814258,78.909018 87.962258,80.762018 87.030258,82.626018 C84.857258,86.984018 82.645258,90.542018 79.857258,94.160018 C75.220258,100.220018 70.549258,104.788018 65.141258,110.077018 L64.167258,111.030018 C63.941258,111.252018 63.636258,111.375018 63.322258,111.375018 L63.322258,111.375018 Z" id="Fill-78"></path>
            <path d="M37.483258,126.807018 C37.646258,126.807018 37.810258,126.840018 37.967258,126.909018 C38.491258,127.138018 38.783258,127.702018 38.666258,128.264018 C37.474258,133.988018 37.659258,138.968018 38.001258,144.418018 L38.001258,144.565018 C37.938258,145.648018 38.574258,153.639018 39.010258,158.647018 C42.180258,152.338018 44.946258,146.708018 47.365258,139.993018 C48.990258,135.527018 50.102258,131.333018 50.970258,126.391018 C51.341258,124.297018 51.645258,122.232018 51.966258,120.046018 C52.190258,118.520018 52.417258,116.968018 52.675258,115.368018 C53.098258,112.748018 53.599258,109.956018 54.661258,107.141018 C55.843258,104.002018 57.636258,101.248018 59.707258,99.385018 C59.828258,99.275018 59.974258,99.145018 60.051258,99.056018 C59.831258,98.497018 59.359258,98.100018 58.603258,97.829018 C56.010258,96.899018 51.365258,97.862018 48.944258,99.348018 C40.169258,104.659018 33.095258,110.879018 27.064258,123.977018 L25.884258,126.633018 C21.886258,135.634018 18.906258,142.347018 14.277258,151.047018 C14.978258,150.724018 15.630258,150.402018 15.899258,150.249018 C17.875258,148.862018 19.658258,147.401018 21.347258,145.781018 C24.658258,142.599018 28.206258,138.462018 32.509258,132.764018 C33.844258,130.992018 35.187258,129.158018 36.495258,127.316018 C36.730258,126.988018 37.101258,126.807018 37.483258,126.807018 Z M38.213258,164.138018 C37.852258,164.138018 37.507258,163.977018 37.276258,163.694018 C36.657258,162.936018 35.677258,146.312018 35.592258,144.570018 L35.586258,144.570018 C35.334258,140.546018 35.165258,136.768018 35.547258,132.741018 C35.178258,133.238018 34.810258,133.732018 34.441258,134.221018 C30.059258,140.025018 26.430258,144.253018 23.023258,147.526018 C21.231258,149.244018 19.342258,150.793018 17.245258,152.260018 L17.188258,152.298018 C17.139258,152.328018 12.397258,155.232018 11.066258,153.970018 C10.724258,153.648018 10.463258,153.018018 10.851258,152.305018 C16.202258,142.473018 19.336258,135.417018 23.672258,125.650018 L24.859258,122.980018 C30.319258,111.122018 36.717258,103.922018 47.684258,97.281018 C50.632258,95.471018 56.056258,94.342018 59.423258,95.552018 C60.907258,96.086018 61.923258,97.049018 62.363258,98.334018 C62.550258,98.858018 62.540258,99.413018 62.330258,99.925018 C62.096258,100.491018 61.673258,100.870018 61.365258,101.148018 C59.536258,102.794018 57.974258,105.211018 56.925258,107.994018 C55.943258,110.600018 55.467258,113.256018 55.065258,115.753018 C54.809258,117.340018 54.582258,118.882018 54.361258,120.398018 C54.036258,122.602018 53.731258,124.684018 53.354258,126.810018 C52.459258,131.897018 51.314258,136.217018 49.640258,140.817018 C46.988258,148.182018 43.804258,154.506018 40.435258,161.201018 L39.294258,163.470018 C39.111258,163.836018 38.754258,164.086018 38.346258,164.131018 L38.213258,164.138018 L38.213258,164.138018 Z" id="Fill-79"></path>
            <path d="M30.228258,151.631018 C27.532258,151.631018 23.404258,154.220018 21.562258,156.533018 C14.626258,165.140018 9.583258,174.197018 7.497258,190.438018 L6.975258,194.964018 C5.781258,205.344018 4.818258,213.724018 2.942258,224.696018 C3.504258,224.085018 4.005258,223.512018 4.183258,223.284018 C5.683258,220.987018 6.973258,218.695018 8.127258,216.275018 C10.372258,211.559018 12.524258,205.903018 15.104258,197.937018 C15.876258,195.541018 16.636258,193.089018 17.378258,190.615018 C17.547258,190.056018 18.110258,189.705018 18.670258,189.759018 C19.250258,189.824018 19.703258,190.294018 19.743258,190.877018 C20.210258,197.465018 21.791258,202.808018 23.656258,208.617018 L23.689258,208.744018 C23.938258,209.957018 26.752258,218.333018 28.591258,223.683018 C29.820258,215.512018 30.866258,208.329018 31.287258,200.175018 C31.584258,194.755018 31.472258,189.849018 30.921258,184.265018 C30.691258,181.909018 30.407258,179.620018 30.106258,177.195018 C29.897258,175.503018 29.683258,173.784018 29.485258,172.009018 C29.164258,169.123018 28.870258,166.032018 29.105258,162.743018 C29.363258,159.097018 30.304258,155.650018 31.756258,153.042018 C31.890258,152.800018 32.035258,152.538018 32.047258,152.421018 C31.831258,152.117018 31.432258,151.682018 30.413258,151.634018 L30.228258,151.631018 Z M29.068258,229.873018 C28.748258,229.873018 28.436258,229.746018 28.204258,229.511018 C27.599258,228.896018 21.875258,211.032018 21.357258,209.356018 L21.352258,209.357018 C19.996258,205.135018 18.786258,201.148018 18.024258,196.745018 C17.817258,197.402018 17.610258,198.048018 17.405258,198.681018 C14.792258,206.754018 12.604258,212.501018 10.312258,217.316018 C9.103258,219.848018 7.754258,222.247018 6.184258,224.647018 L6.142258,224.706018 C5.536258,225.523018 2.419258,229.569018 0.792258,228.867018 C0.345258,228.675018 -0.122742,228.150018 0.029258,227.305018 C2.250258,214.867018 3.275258,205.961018 4.571258,194.688018 L5.095258,190.146018 C6.968258,175.560018 11.055258,165.715018 19.674258,155.021018 C22.008258,152.086018 26.949258,149.016018 30.526258,149.218018 C32.076258,149.289018 33.302258,149.946018 34.068258,151.114018 C34.376258,151.573018 34.513258,152.115018 34.454258,152.670018 C34.393258,153.277018 34.119258,153.769018 33.901258,154.164018 C32.587258,156.525018 31.752258,159.613018 31.518258,162.915018 C31.298258,166.000018 31.580258,168.967018 31.890258,171.741018 C32.086258,173.505018 32.299258,175.215018 32.508258,176.898018 C32.811258,179.338018 33.096258,181.643018 33.329258,184.030018 C33.892258,189.739018 34.007258,194.758018 33.703258,200.304018 C33.258258,208.940018 32.127258,216.453018 30.818258,225.155018 L30.264258,228.841018 C30.197258,229.295018 29.878258,229.671018 29.442258,229.814018 C29.319258,229.854018 29.193258,229.873018 29.068258,229.873018 L29.068258,229.873018 Z" id="Fill-80"></path>
        </g>
    </g>
</svg>